<?xml version="1.0" standalone="no"?>
<!DOCTYPE svg PUBLIC "-//W3C//DTD SVG 20010904//EN"
 "http://www.w3.org/TR/2001/REC-SVG-20010904/DTD/svg10.dtd">
<svg version="1.0" xmlns="http://www.w3.org/2000/svg"
 width="1364.000000pt" height="767.000000pt" viewBox="0 0 1364.000000 767.000000"
 preserveAspectRatio="xMidYMid meet">

<g transform="translate(0.000000,767.000000) scale(0.100000,-0.100000)"
fill="#000000" stroke="none">
<path d="M0 3835 l0 -3835 6820 0 6820 0 0 3835 0 3835 -6820 0 -6820 0 0
-3835z m6475 3175 c10 -11 27 -20 37 -20 21 0 41 -41 31 -67 -5 -14 -7 -13
-14 5 -5 12 -15 22 -24 22 -9 0 -29 7 -46 16 -28 14 -32 14 -64 -6 -25 -15
-35 -29 -35 -46 0 -14 -4 -22 -10 -19 -13 8 -13 51 1 76 12 23 67 59 90 59 9
0 24 -9 34 -20z m2093 -116 c31 -15 32 -17 32 -84 0 -67 -1 -70 -30 -85 -52
-27 -140 -15 -140 20 0 11 7 12 31 5 44 -13 58 -2 80 61 24 68 24 74 -3 87
-13 6 -18 11 -12 11 6 1 25 -6 42 -15z m-2036 -37 c-11 -19 -28 -33 -42 -35
-23 -4 -23 -3 8 24 18 16 32 34 32 42 0 7 5 10 10 7 7 -4 4 -18 -8 -38z m-112
-33 c0 -13 -31 0 -40 17 -11 20 -11 20 14 4 14 -10 26 -19 26 -21z m357 -50
c-3 -3 -12 -4 -19 -1 -8 3 -5 6 6 6 11 1 17 -2 13 -5z m-663 -92 c35 -37 44
-91 21 -126 -24 -37 -32 -33 -31 17 1 57 -28 91 -70 81 -69 -17 -91 -55 -58
-102 20 -29 -1 -30 -33 0 -18 16 -23 32 -23 68 0 68 24 85 126 89 32 1 46 -5
68 -27z m-784 -12 c0 -5 -5 -10 -11 -10 -5 0 -7 5 -4 10 3 6 8 10 11 10 2 0 4
-4 4 -10z m1894 -5 c8 -8 20 -15 27 -15 7 0 10 -3 6 -6 -8 -9 -77 18 -71 28 8
12 21 10 38 -7z m1710 -32 c29 -15 35 -25 41 -63 6 -41 5 -46 -24 -70 -17 -14
-31 -33 -31 -42 0 -15 -9 -18 -47 -18 -27 0 -56 7 -66 15 -21 15 -18 52 3 47
8 -2 29 -1 46 3 25 4 37 15 53 46 33 62 29 79 -20 79 -24 0 -38 4 -34 10 9 15
40 12 79 -7z m-124 -23 c0 -5 -5 -10 -11 -10 -5 0 -7 5 -4 10 3 6 8 10 11 10
2 0 4 -4 4 -10z m-1159 -116 c12 -15 11 -16 -11 -9 -35 10 -49 25 -23 25 11 0
27 -7 34 -16z m61 -46 c-9 -9 -15 -9 -24 0 -9 9 -7 12 12 12 19 0 21 -3 12
-12z m-1172 -37 c12 -24 13 -111 1 -111 -5 0 -12 12 -15 26 -9 35 -28 53 -64
60 -24 5 -37 0 -70 -30 -21 -20 -42 -36 -46 -36 -12 0 -6 30 15 70 l21 40 74
0 c62 0 75 -3 84 -19z m1245 -1 c10 -11 16 -20 13 -20 -8 0 -68 31 -68 36 0
12 39 1 55 -16z m1421 -93 c4 -4 -9 -7 -29 -7 -77 0 -131 -64 -102 -120 21
-41 65 -44 110 -8 30 26 35 35 35 74 0 24 4 44 10 44 18 0 30 -38 30 -94 0
-43 -4 -56 -15 -56 -8 0 -22 -11 -31 -25 -26 -40 -89 -32 -140 19 -38 38 -39
100 -1 141 6 8 18 21 25 30 10 12 26 15 58 12 24 -2 47 -6 50 -10z m-1251 -7
c8 -13 -5 -13 -25 0 -13 8 -13 10 2 10 9 0 20 -4 23 -10z m-1972 -51 c39 -30
62 -84 49 -112 -5 -12 -14 -31 -18 -42 -6 -15 -9 -7 -12 30 -4 61 -19 75 -84
75 -54 0 -74 -21 -63 -70 8 -36 -9 -47 -29 -18 -28 40 -15 128 18 128 8 0 19
7 26 15 18 22 82 19 113 -6z m402 11 c3 -5 1 -10 -4 -10 -6 0 -11 5 -11 10 0
6 2 10 4 10 3 0 8 -4 11 -10z m1619 1 c3 -4 3 -11 0 -14 -8 -8 -34 3 -34 14 0
11 27 12 34 0z m-1516 -30 c10 -6 6 -10 -14 -14 -32 -6 -56 1 -48 14 7 11 45
11 62 0z m-1213 -61 c-3 -5 -13 -10 -21 -10 -8 0 -26 -7 -39 -16 -34 -22 -32
-61 6 -107 24 -29 38 -37 63 -37 47 0 50 -10 11 -31 -53 -28 -85 -24 -128 16
-32 31 -37 41 -37 81 0 51 24 83 77 102 37 14 76 15 68 2z m75 -60 c0 -11 -4
-20 -10 -20 -5 0 -10 2 -10 4 0 2 -3 11 -6 20 -4 11 -1 16 10 16 9 0 16 -8 16
-20z m2860 -5 c13 -14 20 -28 16 -32 -4 -5 -16 2 -26 15 -10 12 -23 22 -29 22
-6 0 -11 5 -11 10 0 18 26 10 50 -15z m-2320 -30 c10 -13 9 -15 -9 -15 -12 0
-21 6 -21 15 0 8 4 15 9 15 5 0 14 -7 21 -15z m2417 -61 c-3 -3 -12 -4 -19 -1
-8 3 -5 6 6 6 11 1 17 -2 13 -5z m53 -55 c0 -6 -4 -7 -10 -4 -5 3 -10 11 -10
16 0 6 5 7 10 4 6 -3 10 -11 10 -16z m-4192 -41 c-20 -29 -38 -34 -38 -10 0
24 8 32 33 32 18 0 18 -2 5 -22z m1974 -32 c25 -19 48 -42 52 -51 10 -27 7
-77 -4 -70 -5 3 -10 15 -10 26 0 11 -8 22 -17 25 -10 3 -30 12 -45 20 -38 20
-56 18 -88 -15 -33 -33 -40 -30 -40 13 0 23 8 38 32 58 43 36 66 35 120 -6z
m2306 -4 c2 -7 -3 -12 -12 -12 -9 0 -16 7 -16 16 0 17 22 14 28 -4z m-4342
-27 c-18 -27 -43 -42 -53 -31 -3 3 5 15 18 26 13 11 29 24 34 29 18 16 18 2 1
-24z m5174 0 c0 -2 -13 -11 -30 -20 -24 -13 -30 -13 -30 -2 0 8 3 17 7 20 7 8
53 10 53 2z m120 -87 c0 -44 -4 -53 -36 -84 -52 -48 -90 -43 -160 22 -19 17
-22 27 -17 62 7 50 20 55 25 10 2 -23 11 -36 33 -49 41 -24 56 -23 87 6 32 29
44 63 29 78 -6 6 -11 20 -11 31 0 18 1 18 25 -4 20 -19 25 -33 25 -72z m-2848
49 c23 -17 28 -28 28 -65 0 -51 -23 -55 -28 -4 -6 63 -81 82 -131 34 -39 -37
-41 -51 -7 -94 32 -42 61 -48 101 -22 22 14 25 14 25 1 0 -36 -90 -37 -137 -1
-31 23 -33 29 -33 84 0 55 2 59 33 79 39 25 106 20 149 -12z m1943 13 c3 -5
-1 -10 -9 -10 -9 0 -16 5 -16 10 0 6 4 10 9 10 6 0 13 -4 16 -10z m-4825 -30
c-8 -5 -23 -10 -32 -10 -14 0 -18 -8 -18 -37 1 -51 44 -103 88 -106 39 -3 40
-8 3 -30 -36 -21 -84 -22 -101 -2 -7 8 -18 15 -25 15 -6 0 -17 18 -24 40 -9
32 -9 49 1 78 16 49 34 62 82 62 30 0 37 -3 26 -10z m70 -5 c7 -9 11 -18 8
-20 -6 -6 -58 18 -58 28 0 13 37 7 50 -8z m200 5 c12 -8 11 -10 -5 -10 -23 0
-45 -18 -45 -36 0 -7 18 -31 40 -54 51 -53 81 -52 94 2 8 34 7 40 -17 62 -14
13 -32 26 -39 29 -7 3 6 6 30 6 l42 1 0 -85 c0 -70 -3 -85 -15 -85 -9 0 -34
-9 -55 -20 -65 -33 -114 -7 -138 74 -10 36 -9 43 16 82 28 45 58 56 92 34z
m2110 -82 c0 -5 -10 -8 -22 -6 -17 2 -24 11 -26 33 l-4 30 26 -24 c14 -14 26
-29 26 -33z m-1369 22 c-11 -38 -12 -80 -3 -95 13 -25 81 -46 104 -34 13 7 18
21 18 55 0 28 4 43 10 39 6 -3 10 -26 10 -50 0 -38 -4 -47 -39 -74 -45 -36
-77 -39 -131 -11 l-40 20 0 75 c0 60 3 76 18 84 24 15 58 9 53 -9z m107 -4 c3
-15 1 -16 -17 -5 -11 7 -17 17 -14 22 8 13 28 2 31 -17z m-1008 -16 c0 -11 -4
-20 -10 -20 -5 0 -10 9 -10 20 0 11 5 20 10 20 6 0 10 -9 10 -20z m2386 -7
c-10 -10 -19 5 -10 18 6 11 8 11 12 0 2 -7 1 -15 -2 -18z m2429 7 c3 -5 1 -10
-4 -10 -6 0 -11 5 -11 10 0 6 2 10 4 10 3 0 8 -4 11 -10z m102 -137 c3 -7 -3
-9 -16 -6 -12 3 -21 10 -21 15 0 13 32 6 37 -9z m-4900 -49 c-3 -3 -12 -4 -19
-1 -8 3 -5 6 6 6 11 1 17 -2 13 -5z m4960 -29 c19 -20 31 -40 27 -47 -5 -7
-19 2 -41 27 -54 61 -42 78 14 20z m-5023 -9 c-8 -34 19 -81 60 -100 49 -23
66 -13 66 40 0 49 15 58 30 18 15 -38 13 -46 -20 -84 -29 -34 -32 -35 -96 -34
-82 1 -94 13 -94 97 0 45 4 63 18 73 28 21 43 17 36 -10z m5096 -99 c8 -14 11
-29 7 -33 -8 -8 -46 36 -47 54 0 21 23 8 40 -21z m630 3 c-20 -13 -33 -13 -25
0 3 6 14 10 23 10 15 0 15 -2 2 -10z m-5465 -45 c-28 -27 -30 -37 -14 -68 17
-32 28 -37 92 -37 52 0 57 2 57 23 0 12 5 29 10 37 16 24 13 -35 -4 -74 -10
-24 -25 -38 -55 -49 -55 -23 -66 -22 -108 10 -35 27 -35 27 -30 92 5 67 21 91
58 91 15 0 14 -4 -6 -25z m125 5 c0 -20 -1 -20 -27 -3 -16 9 -30 18 -32 20 -2
2 10 3 27 3 25 0 32 -4 32 -20z m5465 -36 c10 -86 -25 -124 -115 -124 -37 0
-70 20 -70 41 0 6 -7 17 -15 25 -16 16 -20 51 -9 78 11 28 24 6 24 -39 0 -42
2 -44 33 -50 66 -13 90 -4 116 43 17 32 20 47 12 55 -15 15 -14 27 3 27 9 0
16 -18 21 -56z m-695 -41 c0 -16 -6 -23 -20 -23 -17 0 -20 7 -20 42 0 40 0 41
20 23 11 -10 20 -29 20 -42z m-2803 25 c7 -6 13 -16 13 -22 0 -6 9 -22 20 -36
22 -28 26 -70 8 -88 -20 -20 -28 -14 -28 21 0 38 -21 62 -61 72 -31 8 -83 -15
-93 -40 -9 -26 4 -64 25 -70 10 -4 19 -11 19 -17 0 -6 20 -9 50 -6 55 3 63
-11 12 -26 -33 -9 -71 8 -120 54 -20 19 -22 28 -16 68 8 57 17 70 69 94 40 18
78 17 102 -4z m491 -81 c13 -12 22 -32 22 -51 l0 -30 -28 27 c-24 23 -36 27
-90 27 -67 0 -67 0 -75 -75 l-3 -30 -17 39 c-17 37 -16 40 4 73 12 19 31 39
43 43 33 14 118 1 144 -23z m2342 -7 c0 -6 11 -15 25 -20 19 -7 25 -17 25 -40
0 -30 -1 -30 -23 -15 -34 22 -61 85 -37 85 6 0 10 -5 10 -10z m-2335 -130 c3
-5 -1 -10 -10 -10 -9 0 -13 5 -10 10 3 6 8 10 10 10 2 0 7 -4 10 -10z m1075
-9 c0 -19 -25 -24 -144 -26 -66 -2 -138 -6 -158 -10 -31 -6 -38 -4 -38 9 0 19
23 25 110 29 151 7 230 6 230 -2z m-2440 -26 c10 -12 10 -21 1 -42 -11 -24
-13 -24 -30 -9 -27 25 -248 17 -268 -9 -12 -18 -14 -18 -38 5 -25 24 -25 24
-6 44 18 17 23 18 45 6 29 -15 223 -8 253 9 24 14 28 14 43 -4z m3788 3 c7 -7
12 -21 12 -32 0 -20 -2 -19 -20 4 -11 14 -20 28 -20 33 0 11 15 8 28 -5z
m-2491 -4 c-3 -3 -12 -4 -19 -1 -8 3 -5 6 6 6 11 1 17 -2 13 -5z m2559 -171
c-11 -11 -36 20 -36 46 l0 26 21 -33 c12 -18 19 -36 15 -39z m57 -116 c40 -92
35 -164 -7 -79 -10 20 -22 45 -27 54 -11 21 -12 88 -1 88 4 0 19 -29 35 -63z
m382 23 c4 -6 -13 -10 -44 -10 -28 0 -51 5 -51 10 0 6 20 10 44 10 25 0 48 -4
51 -10z m-1845 -20 c8 -5 12 -11 9 -14 -3 -3 -82 -7 -177 -9 -138 -4 -172 -2
-172 9 0 9 20 14 68 17 146 7 258 6 272 -3z m-2440 -14 c16 -20 9 -62 -10 -58
-15 4 -258 3 -295 -1 -16 -2 -21 5 -23 28 l-3 31 98 -4 c54 -2 116 1 138 6 58
14 81 14 95 -2z m4338 -11 c18 -39 14 -79 -10 -111 -32 -41 -37 -44 -95 -44
-48 0 -54 2 -68 30 -9 17 -20 30 -25 30 -6 0 -10 14 -10 30 0 37 16 39 32 4
14 -31 72 -58 96 -45 10 5 30 23 45 39 24 25 27 33 18 50 -6 12 -11 25 -11 31
0 20 17 11 28 -14z m-3471 -72 c4 -9 17 -26 29 -38 23 -20 27 -36 25 -87 -1
-34 -21 -38 -21 -4 0 13 -6 29 -14 36 -8 6 -16 21 -18 33 -3 19 -10 22 -50 25
-66 4 -93 -22 -84 -84 7 -53 -13 -61 -36 -14 -36 75 21 149 115 150 36 0 49
-4 54 -17z m483 -3 c20 -20 29 -77 10 -65 -5 3 -10 12 -10 19 0 19 -76 29
-120 16 -19 -5 -36 -10 -37 -10 -2 0 -3 9 -3 20 0 27 27 39 88 40 39 0 57 -5
72 -20z m-173 -72 c-3 -7 -5 -2 -5 12 0 14 2 19 5 13 2 -7 2 -19 0 -25z
m-2997 8 c0 -8 -4 -18 -10 -21 -5 -3 -10 3 -10 14 0 12 5 21 10 21 6 0 10 -6
10 -14z m3123 -113 c-7 -2 -19 -2 -25 0 -7 3 -2 5 12 5 14 0 19 -2 13 -5z
m1145 -15 c3 -17 -10 -18 -172 -18 -105 0 -176 4 -176 10 0 23 42 30 190 27
138 -2 155 -4 158 -19z m-4298 -31 c0 -24 -16 -54 -24 -46 -3 3 -3 22 1 42 6
38 23 41 23 4z m470 -6 c0 -5 -7 -14 -15 -21 -12 -10 -15 -10 -15 2 0 8 3 18
7 21 9 10 23 9 23 -2z m137 -6 c8 -23 -4 -30 -21 -12 -8 8 -12 17 -9 21 11 11
23 7 30 -9z m1253 -5 c0 -18 -9 -19 -162 -22 -188 -3 -198 -2 -198 23 0 18 10
19 180 19 172 0 180 -1 180 -20z m-1305 -100 c30 7 57 11 59 9 2 -2 2 -17 -1
-32 -8 -42 -70 -71 -121 -57 -48 13 -55 19 -69 59 -17 47 -8 55 37 30 37 -21
43 -21 95 -9z m-591 -23 c-4 -12 -13 -49 -19 -82 l-13 -60 -1 76 c-1 45 4 80
11 87 17 17 30 4 22 -21z m6086 -104 c-1 -9 -70 -45 -70 -37 0 3 10 14 23 25
22 19 47 25 47 12z m95 -4 c4 -6 5 -12 4 -14 -7 -7 -59 8 -59 16 0 13 47 11
55 -2z m-276 -74 c13 -91 14 -143 2 -129 -24 26 -43 204 -22 204 5 0 14 -34
20 -75z m-1582 48 c7 -19 -9 -22 -169 -25 -135 -3 -148 -2 -148 14 0 15 13 18
103 20 179 5 210 4 214 -9z m-2428 -22 c12 -8 13 -15 4 -34 -11 -24 -14 -24
-150 -27 -76 -1 -149 -3 -163 -3 -21 -2 -25 2 -25 28 l0 30 155 5 c85 3 157 7
160 8 3 1 11 -2 19 -7z m4321 -37 c0 -14 -10 -43 -22 -64 -20 -34 -29 -40 -67
-46 -28 -4 -50 -2 -60 5 -9 6 -26 15 -38 21 -17 7 -23 18 -23 40 0 29 13 40
25 20 7 -11 123 -14 149 -4 9 3 16 17 16 30 0 13 5 24 10 24 6 0 10 -11 10
-26z m-2958 -41 c21 -20 28 -36 28 -64 0 -21 -4 -41 -10 -44 -6 -4 -10 8 -10
28 0 28 -5 36 -35 50 -48 23 -64 21 -107 -8 -20 -14 -39 -25 -42 -25 -4 0 -6
13 -6 30 0 24 6 33 33 44 17 8 52 15 76 15 36 1 51 -5 73 -26z m-458 -83 c21
-20 29 -38 28 -61 -1 -45 -21 -79 -45 -79 -20 0 -20 1 1 23 28 30 28 35 -9 75
-27 30 -34 33 -77 30 -41 -3 -49 -7 -61 -32 -10 -22 -11 -34 -2 -48 13 -20 15
-48 4 -48 -15 0 -53 66 -53 91 1 83 146 117 214 49z m320 -45 c3 -8 2 -15 -3
-15 -5 0 -14 7 -21 15 -10 12 -10 15 3 15 8 0 17 -7 21 -15z m123 -31 c-3 -3
-12 -4 -19 -1 -8 3 -5 6 6 6 11 1 17 -2 13 -5z m1090 -39 c3 -9 3 -18 1 -21
-3 -2 -75 -7 -160 -10 -114 -5 -161 -3 -178 6 -23 12 -23 13 -5 26 14 11 59
14 177 14 134 0 160 -2 165 -15z m-2427 -50 c25 -30 0 -35 -160 -35 -135 0
-159 2 -164 16 -3 9 -4 20 0 25 3 5 74 9 158 9 122 0 156 -3 166 -15z m825 5
c4 -6 -5 -10 -20 -10 -15 0 -24 4 -20 10 3 6 12 10 20 10 8 0 17 -4 20 -10z
m3182 -72 c-3 -7 -5 -2 -5 12 0 14 2 19 5 13 2 -7 2 -19 0 -25z m0 -90 c-3 -7
-5 -2 -5 12 0 14 2 19 5 13 2 -7 2 -19 0 -25z m238 -48 c14 -6 4 -9 -35 -8
-42 0 -49 2 -30 8 32 10 41 10 65 0z m-6158 -172 c6 -7 13 -33 16 -58 3 -25
10 -67 16 -94 7 -32 8 -53 2 -59 -6 -6 -12 1 -16 19 -3 16 -10 45 -15 64 -24
95 -30 135 -29 202 l2 73 7 -67 c3 -37 11 -73 17 -80z m4366 128 c12 -30 -22
-38 -182 -43 -143 -5 -161 -4 -167 11 -16 43 -4 46 175 46 137 0 170 -3 174
-14z m1682 -10 c-15 -23 -15 -27 1 -51 16 -25 22 -27 71 -23 31 3 61 12 72 23
25 21 56 13 46 -13 -3 -9 -16 -32 -28 -49 -20 -31 -26 -33 -78 -33 -50 0 -60
3 -88 32 -21 22 -31 42 -31 62 0 51 11 76 31 76 18 0 18 -1 4 -24z m175 -7 c0
-11 -4 -17 -10 -14 -5 3 -10 13 -10 21 0 8 5 14 10 14 6 0 10 -9 10 -21z
m-309 -82 c-13 -13 -15 41 -3 70 5 13 8 8 10 -21 2 -21 -1 -43 -7 -49z m-4013
48 c2 -19 -3 -20 -113 -21 -63 -1 -133 -4 -155 -8 -31 -5 -42 -3 -46 9 -13 34
11 40 163 40 140 0 148 -1 151 -20z m-1243 -45 c-3 -5 -17 -10 -31 -10 -13 0
-24 5 -24 10 0 6 14 10 31 10 17 0 28 -4 24 -10z m-99 -42 c-38 -54 0 -108 75
-108 56 0 79 18 79 62 0 19 4 28 13 26 21 -8 19 -45 -6 -90 l-24 -43 -72 0
c-90 1 -101 12 -101 100 0 67 4 75 32 75 18 0 18 -2 4 -22z m5344 -34 c0 -8
-5 -12 -10 -9 -6 4 -8 11 -5 16 9 14 15 11 15 -7z m-2654 -64 c58 -20 84 -114
44 -161 -22 -27 -26 -14 -11 38 14 48 -14 73 -84 73 -46 0 -57 -4 -70 -23 -12
-19 -13 -30 -4 -56 16 -45 4 -50 -20 -10 -25 41 -26 59 -4 97 26 46 88 63 149
42z m-482 -39 c10 -11 28 -21 40 -23 16 -2 22 -11 24 -38 1 -19 -1 -30 -5 -24
-21 29 -144 37 -169 12 -26 -26 -11 -83 26 -98 41 -17 47 -30 13 -29 -21 0
-37 11 -61 42 -29 35 -33 47 -28 77 6 40 46 80 79 80 12 0 29 5 37 10 21 13
24 13 44 -9z m1404 -35 c11 -12 -9 -19 -53 -18 -25 0 -47 -4 -51 -9 -3 -5 -14
-9 -25 -9 -13 0 -19 7 -19 24 0 23 2 24 71 21 39 -2 74 -6 77 -9z m190 -8 c23
-23 11 -29 -45 -22 -65 7 -68 8 -58 23 9 15 88 14 103 -1z m-2460 -41 c9 -20
-12 -26 -113 -31 -60 -3 -124 -8 -142 -12 -25 -5 -35 -2 -49 15 -10 12 -28 22
-39 22 -13 1 -10 4 10 9 38 9 329 7 333 -3z m932 -52 c0 -24 -50 -65 -78 -65
-25 0 -25 0 8 25 19 14 40 25 47 25 7 0 13 7 13 15 0 8 2 15 5 15 3 0 5 -7 5
-15z m-2750 -101 c6 -14 10 -39 10 -57 0 -28 -1 -30 -16 -16 -19 20 -32 99
-15 99 6 0 16 -12 21 -26z m4300 -114 c0 -34 -2 -34 -135 -31 -38 1 -100 -2
-137 -7 -75 -9 -88 -4 -88 38 l0 25 180 3 180 3 0 -31z m1410 -45 c-12 -25
-25 -45 -30 -45 -21 0 -15 31 13 76 38 60 50 38 17 -31z m-5650 -59 l0 -31
-20 33 c-12 19 -20 50 -20 75 l0 42 20 -44 c11 -24 20 -57 20 -75z m1785 89
c0 -18 -6 -20 -55 -18 -77 3 -77 3 -155 -3 -44 -4 -77 -12 -88 -22 -18 -16
-20 -15 -33 3 -8 10 -14 22 -14 26 0 27 63 36 245 35 93 -1 100 -2 100 -21z
m-1755 -145 c0 -6 11 -28 25 -50 36 -57 31 -70 -10 -24 -32 37 -47 84 -25 84
6 0 10 -5 10 -10z m5927 -86 c2 -7 -6 -10 -23 -6 -35 6 -94 -25 -94 -50 0 -31
17 -55 55 -78 46 -28 75 -21 98 26 14 28 15 39 6 50 -9 11 -8 14 3 14 18 0 36
-57 29 -87 -3 -12 -28 -37 -55 -54 l-49 -33 -54 30 c-56 29 -73 53 -73 102 0
27 35 72 56 72 6 0 15 7 18 16 7 18 77 16 83 -2z m-4157 -53 c0 -32 -12 -36
-113 -36 -155 1 -183 -3 -198 -31 -19 -36 -30 -29 -27 19 l3 42 150 5 c83 3
158 7 168 8 9 1 17 -2 17 -7z m2430 -9 c0 -17 -9 -18 -107 -16 -60 1 -124 5
-144 9 -23 5 -39 3 -43 -4 -12 -18 -36 -12 -36 9 0 19 7 20 165 20 153 0 165
-1 165 -18z m-4103 -84 c-3 -7 -5 -2 -5 12 0 14 2 19 5 13 2 -7 2 -19 0 -25z
m502 6 c24 -22 4 -28 -34 -10 -19 10 -44 14 -55 11 -22 -7 -28 10 -7 18 19 8
81 -4 96 -19z m3291 -9 c0 -8 -7 -15 -15 -15 -16 0 -20 12 -8 23 11 12 23 8
23 -8z m-3410 -5 c0 -5 -5 -10 -11 -10 -5 0 -7 5 -4 10 3 6 8 10 11 10 2 0 4
-4 4 -10z m2597 -12 c15 -6 36 -21 45 -32 21 -26 24 -99 4 -115 -12 -10 -13
-6 -9 26 7 53 -19 75 -87 75 -64 0 -84 -15 -77 -59 7 -41 -6 -43 -22 -5 -33
80 57 148 146 110z m-434 -36 c46 -48 33 -87 -15 -47 -32 27 -61 31 -105 14
-34 -13 -43 -26 -43 -61 0 -16 -4 -28 -10 -28 -5 0 -10 23 -10 50 0 28 4 50
10 50 5 0 12 11 16 25 6 23 10 25 68 25 55 0 65 -3 89 -28z m-2003 -36 c0 -13
-6 -29 -14 -36 -8 -6 -16 -26 -18 -43 -3 -30 -6 -32 -47 -35 -54 -4 -121 37
-121 74 0 27 12 31 30 9 20 -24 51 -18 104 20 59 41 66 43 66 11z m-480 -7 c0
-5 -4 -9 -10 -9 -5 0 -10 7 -10 16 0 8 5 12 10 9 6 -3 10 -10 10 -16z m34 -71
c18 -34 15 -44 -9 -35 -9 4 -15 19 -15 37 0 38 5 38 24 -2z m5177 -21 c-17
-17 -24 -1 -10 25 12 21 14 21 17 4 2 -10 -1 -23 -7 -29z m-2711 -3 c0 -8 -5
-12 -10 -9 -6 4 -8 11 -5 16 9 14 15 11 15 -7z m-2420 -35 c0 -5 -4 -9 -10 -9
-5 0 -10 7 -10 16 0 8 5 12 10 9 6 -3 10 -10 10 -16z m2348 4 c-10 -2 -28 -2
-40 0 -13 2 -5 4 17 4 22 1 32 -1 23 -4z m2662 -310 c0 -5 -7 -17 -15 -27 -40
-52 11 -136 82 -136 l38 0 -33 -21 c-33 -21 -33 -21 -68 -3 -55 29 -95 110
-64 129 6 3 10 16 10 29 0 12 3 26 7 29 9 9 43 9 43 0z m-116 -18 c-4 -8 -8
-15 -10 -15 -2 0 -4 7 -4 15 0 8 4 15 10 15 5 0 7 -7 4 -15z m-1599 -95 c-16
-16 -35 -30 -42 -30 -17 0 -33 -41 -33 -83 l0 -32 -20 30 c-11 17 -20 39 -20
51 0 35 72 91 119 93 l25 1 -29 -30z m115 -25 c0 -8 -4 -15 -8 -15 -13 0 -43
36 -36 43 10 10 44 -12 44 -28z m1403 13 c-24 -23 -40 -20 -30 7 4 8 17 15 29
15 l22 0 -21 -22z m-635 -95 c-10 -2 -21 -17 -25 -31 -3 -15 -13 -32 -22 -39
-14 -10 -14 -13 1 -30 10 -11 19 -30 20 -44 5 -41 -25 -28 -50 23 -19 38 -21
51 -12 68 13 24 68 60 90 59 11 -1 10 -3 -2 -6z m-920 -51 c2 -7 -3 -12 -12
-12 -9 0 -16 7 -16 16 0 17 22 14 28 -4z m-958 -44 c41 -43 48 -64 31 -96 -5
-9 -13 -26 -17 -37 -6 -14 -10 -4 -14 39 l-5 59 -52 26 c-49 25 -50 27 -30 38
36 18 45 15 87 -29z m-1771 -7 c22 -30 28 -94 12 -120 -14 -22 -75 -38 -122
-32 -35 5 -48 13 -66 40 -24 36 -30 75 -13 86 6 4 10 -5 10 -19 0 -31 37 -76
61 -76 10 0 32 13 50 29 29 27 31 33 27 75 -7 55 10 61 41 17z m4101 20 c0 -5
-7 -11 -15 -15 -15 -5 -20 5 -8 17 9 10 23 9 23 -2z m-2470 -15 c0 -8 -7 -16
-15 -20 -8 -3 -16 -16 -16 -28 -1 -19 -2 -20 -6 -4 -5 20 15 66 29 66 4 0 8
-6 8 -14z m2400 -40 c0 -3 -4 -8 -10 -11 -5 -3 -10 -1 -10 4 0 6 5 11 10 11 6
0 10 -2 10 -4z m-3185 -80 c19 -8 35 -20 35 -26 0 -7 9 -23 20 -37 24 -31 27
-73 5 -73 -9 0 -20 -10 -25 -22 -26 -62 -75 -77 -114 -35 -12 13 -30 27 -41
31 -11 5 -15 10 -9 13 7 2 26 -5 44 -16 25 -15 38 -17 55 -9 44 20 40 180 -3
163 -8 -3 -26 -8 -40 -11 l-27 -6 25 21 c30 25 31 25 75 7z m779 -1 c3 -8 2
-15 -3 -15 -5 0 -14 7 -21 15 -10 12 -10 15 3 15 8 0 17 -7 21 -15z"/>
</g>
</svg>
